<?xml version="1.0" encoding="UTF-8"?><svg xmlns="http://www.w3.org/2000/svg" viewBox="0 0 258.11 258.17"><g id="a"/><g id="b"><g id="c"><g><path d="M151.36,124.72v3.47h.85v3.45h.82v40.84h12.11v-40.84h.86v-3.45h1.14v-3.47h-15.78Z" style="fill:#231f20; stroke:#231f20; stroke-miterlimit:10; stroke-width:.27px;"/><path d="M153.99,122.01h10.17v-17.83h.98v-1.75h-12.03v1.91h.98s-.1,17.62-.1,17.67Z" style="fill:#231f20; stroke:#231f20; stroke-miterlimit:10; stroke-width:.27px;"/><path d="M154.59,100.14h9.24s6.29-4.27-4.87-12.8c0,0-9.84,8.86-4.37,12.8Z" style="fill:#231f20; stroke:#231f20; stroke-miterlimit:10; stroke-width:.27px;"/><g><path d="M124.34,169.45v9.67l-33.05-9.13s.5-17.76,.51-19.2c2.67,11.5,10.19,2.05,10.19,2.05,10.7,20.3,22.35-1.73,22.35-1.73,0,0,0,10.24,0,18.34Z" style="fill:#231f20;"/><path d="M127.33,150.48l.16,28.64,32.1-8.97,.16-19.36s-2.68,11.96-10.39,1.26c0,0-8.02,21.87-22.03-1.57Z" style="fill:#231f20;"/><polygon points="91.93 119 91.93 129.39 124.34 124.51 124.5 110.19 91.93 119" style="fill:#231f20;"/><polygon points="127.33 110.19 127.33 124.36 159.28 129.08 159.75 119.16 127.33 110.19" style="fill:#231f20;"/><path d="M127.12,127.82l32.42,5.46-.05,13.69s-2.99,10.91-9.91-4.56c0,0-5.72,22.56-22.19-4.2l-.27-10.39Z" style="fill:#231f20;"/><path d="M124.34,128.34l-32.52,5.35v13.11s4.09,10.6,9.86-4.41c0,0,7.24,23.5,22.97-4.62l-.31-9.43Z" style="fill:#231f20;"/><polygon points="123.14 131.59 92.45 135.9 92.45 138.41 123.14 134.32 123.14 131.59" style="fill:#eab848;"/><polygon points="128.64 131.54 158.6 135.79 158.6 138.41 128.59 134.74 128.64 131.54" style="fill:#eab848;"/><polygon points="124.34 124.51 91.93 129.39 91.82 133.69 124.34 128.34 124.34 124.51" style="fill:#fff;"/><polygon points="127.33 124.36 127.12 127.82 159.54 133.27 159.28 129.08 127.33 124.36" style="fill:#fff;"/><polygon points="124.5 110.19 127.33 110.19 127.49 179.12 124.34 179.12 124.5 110.19" style="fill:#fff;"/><path d="M127.39,138.2s14.06,26.65,22.19,4.2c0,0,6.5,15.05,9.91,4.56l.26,3.83s-2.68,11.96-10.39,1.26c0,0-8.03,22.03-22.03-1.57l.06-12.28Z" style="fill:#fff;"/><path d="M91.82,146.81v3.99s2.31,11.8,10.18,2.05c0,0,8.97,20.14,22.35-1.73l.31-13.32s-14.01,27.54-22.97,4.62c-.01-.02-5.25,14.72-9.87,4.39Z" style="fill:#fff;"/></g><path d="M162.85,82.52c-.48,1.65-2,2.86-3.8,2.86-2.19,0-3.96-1.77-3.96-3.96,0-1.76,1.15-3.25,2.74-3.77-.73,.64-1.19,1.58-1.19,2.63,0,1.94,1.58,3.51,3.52,3.51,1.07,0,2.05-.49,2.69-1.27Z" style="fill:#231f20;"/><g><path d="M51.35,96.06v6.82h1.37v6.77h1.33v80.19h19.64V109.65h1.39v-6.77h1.85v-6.82h-25.58Z" style="fill:#231f20; stroke:#231f20; stroke-miterlimit:10; stroke-width:.49px;"/><path d="M55.61,90.74h16.49V55.73h1.6v-3.44h-19.51v3.76h1.6s-.18,34.58-.18,34.69Z" style="fill:#231f20; stroke:#231f20; stroke-miterlimit:10; stroke-width:.49px;"/><path d="M56.58,47.78h14.99s10.2-8.38-7.89-25.13c0,0-15.96,17.4-7.1,25.13Z" style="fill:#231f20; stroke:#231f20; stroke-miterlimit:10; stroke-width:.49px;"/><path d="M73.81,11.26c-1.1,3.82-4.63,6.62-8.8,6.62-5.07,0-9.17-4.1-9.17-9.17,0-4.06,2.65-7.52,6.33-8.71-1.69,1.48-2.76,3.66-2.76,6.09,0,4.49,3.64,8.13,8.14,8.13,2.52,0,4.78-1.16,6.26-2.96Z" style="fill:#231f20;"/></g><path d="M201.11,147.55c-9.98,29.61-38.59,50.32-71.35,48.89-39.78-1.74-70.53-35.31-68.78-75.09,1.4-31.89,23.39-58.11,52.66-66.2-13.77,11.03-22.92,27.74-23.76,46.8-1.55,35.27,25.8,65.04,61.08,66.59,19.75,.86,37.91-7.38,50.15-20.99Z" style="fill:#231f20;"/><g><path d="M8.15,217.37v.29c-.48,.03-.88,.09-1.18,.2-.3,.11-.57,.29-.81,.53-.33,.34-.54,.81-.61,1.42-.05,.45-.08,.97-.08,1.55v9.39c0,.71,.03,1.26,.1,1.67s.18,.74,.33,.98c.22,.34,.51,.59,.85,.76,.35,.17,.81,.27,1.39,.3v.29H0v-.29c.49-.03,.89-.1,1.19-.21,.3-.11,.57-.29,.8-.53,.27-.27,.45-.61,.55-1.03,.09-.42,.14-1.06,.14-1.94v-9.39c0-.88-.05-1.52-.14-1.94s-.28-.76-.55-1.03c-.23-.25-.5-.42-.8-.53-.31-.11-.7-.18-1.19-.2v-.29H8.15Z"/><path d="M10.26,234.71l.04-5.26h.29c.36,1.35,.78,2.4,1.27,3.18,.93,1.42,2.09,2.14,3.49,2.14,.98,0,1.78-.33,2.42-.98,.64-.65,.96-1.48,.96-2.48,0-.43-.07-.88-.21-1.33s-.33-.84-.57-1.16c-.25-.33-.59-.65-1.04-.96s-1.13-.69-2.05-1.16c-.81-.41-1.43-.75-1.85-1.03-.43-.28-.78-.56-1.04-.85-.73-.8-1.1-1.77-1.1-2.92,0-.7,.14-1.38,.43-2.04,.28-.65,.68-1.21,1.19-1.68,.9-.83,1.97-1.25,3.2-1.25,.4,0,.77,.04,1.11,.12s.79,.24,1.36,.48c.43,.17,.71,.28,.87,.32,.15,.05,.29,.07,.41,.07,.3,0,.5-.22,.6-.65h.29l.09,5.06h-.29c-.23-.81-.43-1.43-.59-1.85-.17-.43-.36-.83-.59-1.19-.42-.66-.87-1.15-1.37-1.47-.5-.32-1.08-.48-1.73-.48-.95,0-1.7,.32-2.25,.97-.23,.26-.41,.57-.54,.93-.13,.36-.2,.71-.2,1.07,0,1.42,.91,2.56,2.74,3.43l1.79,.87c1.38,.65,2.38,1.38,2.99,2.17,.7,.88,1.04,1.91,1.04,3.09,0,.78-.16,1.53-.47,2.24-.44,.99-1.11,1.76-1.99,2.29-.88,.54-1.92,.81-3.12,.81-1.1,0-2.15-.22-3.16-.65-.53-.23-.84-.36-.94-.39s-.22-.05-.34-.05c-.41,0-.69,.2-.84,.61h-.3v-.02Z"/><path d="M23.37,234.76v-.31c.86,0,1.52-.24,1.99-.73,.26-.27,.44-.62,.54-1.04,.1-.42,.15-1.06,.15-1.93v-9.39c0-.9-.05-1.57-.16-1.99-.11-.43-.3-.78-.59-1.05-.24-.22-.5-.38-.8-.48s-.67-.16-1.13-.18v-.29h8.14v.29c-.47,.03-.85,.09-1.15,.19-.3,.1-.56,.26-.79,.48-.29,.28-.48,.63-.59,1.06-.1,.42-.15,1.08-.15,1.98v7.35c0,1.13,.03,1.97,.09,2.52,.06,.55,.17,1,.34,1.35,.3,.61,.74,1.06,1.33,1.34s1.36,.43,2.33,.43,1.86-.13,2.56-.4c.69-.27,1.26-.68,1.7-1.24,.3-.38,.54-.82,.73-1.3s.37-1.12,.53-1.91l.31,.03-.17,5.22h-15.21Z"/><path d="M57.26,234.76h-8.37v-.29c.76-.07,1.28-.2,1.58-.38,.53-.33,.79-.79,.79-1.38,0-.35-.12-.82-.36-1.4l-.22-.54-1.22-3.01h-5.61l-.66,1.76-.32,.79c-.38,.93-.57,1.67-.57,2.2,0,.31,.07,.61,.21,.88s.33,.49,.57,.66c.33,.23,.76,.37,1.27,.41v.29h-5.71v-.29c.45-.03,.85-.14,1.19-.33s.67-.51,.99-.94c.27-.35,.54-.8,.8-1.35,.26-.55,.6-1.37,1.03-2.47l4.66-12.02h.73l5.54,13.39c.42,1.01,.75,1.73,.99,2.17,.25,.43,.51,.76,.8,.98,.2,.15,.44,.27,.7,.35,.26,.08,.66,.15,1.19,.21v.31Zm-8-7.52l-2.68-6.6-2.52,6.6h5.2Z"/><path d="M79.86,217.66c-.48,.03-.87,.09-1.17,.2-.29,.11-.56,.28-.81,.53-.19,.18-.33,.38-.42,.59-.09,.22-.16,.49-.19,.82-.06,.44-.09,.96-.09,1.57v9.39c0,.88,.05,1.53,.15,1.95,.1,.43,.28,.77,.55,1.02,.47,.45,1.13,.7,1.98,.74v.29h-8.14v-.29c.49-.03,.89-.1,1.19-.21,.3-.11,.57-.29,.81-.53,.26-.27,.44-.62,.54-1.04,.1-.42,.15-1.06,.15-1.93v-11.39l-6.56,15.4h-.27l-6.53-15.17v11.16c0,.88,.05,1.52,.15,1.94,.1,.42,.28,.76,.54,1.03,.24,.25,.51,.43,.81,.54s.69,.18,1.18,.2v.29h-5.88v-.29c.48-.03,.88-.09,1.18-.2,.3-.11,.57-.29,.81-.54,.26-.27,.44-.62,.54-1.04,.1-.42,.15-1.06,.15-1.93v-9.39c0-.39,0-.76-.04-1.11-.04-.63-.14-1.09-.29-1.38-.21-.4-.5-.69-.87-.88s-.86-.3-1.47-.34v-.29h5.53l5.52,13.62,5.72-13.62h5.24v.29h0Z"/><path d="M89.5,217.37v.29c-.48,.03-.88,.09-1.18,.2-.3,.11-.57,.29-.81,.53-.33,.34-.54,.81-.61,1.42-.05,.45-.08,.97-.08,1.55v9.39c0,.71,.03,1.26,.1,1.67s.18,.74,.33,.98c.22,.34,.51,.59,.85,.76,.35,.17,.81,.27,1.39,.3v.29h-8.14v-.29c.49-.03,.89-.1,1.19-.21,.3-.11,.57-.29,.8-.53,.27-.27,.45-.61,.55-1.03,.09-.42,.14-1.06,.14-1.94v-9.39c0-.88-.05-1.52-.14-1.94s-.28-.76-.55-1.03c-.23-.25-.5-.42-.8-.53-.31-.11-.7-.18-1.19-.2v-.29h8.15Z"/><path d="M106.66,217.28l.15,5.7h-.29c-.09-.25-.17-.43-.22-.56-.3-.82-.54-1.42-.73-1.82-.33-.71-.81-1.37-1.44-1.96-.48-.45-.97-.78-1.48-.98-.51-.2-1.08-.3-1.72-.3-.96,0-1.79,.21-2.5,.62-.62,.37-1.2,.89-1.73,1.57-.54,.68-.97,1.46-1.31,2.34-.48,1.23-.73,2.63-.73,4.21,0,1.33,.17,2.54,.5,3.61s.82,1.97,1.45,2.69c1.17,1.34,2.73,2.01,4.66,2.01,.97,0,1.84-.17,2.61-.5,.77-.34,1.37-.81,1.8-1.42,.49-.7,.85-1.66,1.07-2.85l.29,.05c-.16,1.34-.53,2.41-1.1,3.2-.54,.76-1.29,1.33-2.25,1.73-.96,.4-2.06,.6-3.32,.6-1.17,0-2.29-.17-3.36-.52-1.71-.56-3.04-1.57-4-3.04s-1.44-3.21-1.44-5.25c0-1.55,.28-2.99,.84-4.3s1.34-2.37,2.35-3.17c.77-.61,1.7-1.1,2.77-1.46,1.07-.36,2.15-.54,3.23-.54s2.12,.2,3.26,.59l1.05,.34c.2,.08,.38,.12,.54,.12,.21,0,.39-.09,.52-.27,.06-.08,.13-.22,.22-.42h.31v-.02Z"/><path d="M131.13,217.28l.15,5.7h-.29c-.09-.25-.17-.43-.22-.56-.3-.82-.54-1.42-.73-1.82-.33-.71-.81-1.37-1.44-1.96-.48-.45-.97-.78-1.48-.98-.51-.2-1.08-.3-1.72-.3-.96,0-1.79,.21-2.5,.62-.62,.37-1.2,.89-1.73,1.57-.54,.68-.97,1.46-1.31,2.34-.48,1.23-.73,2.63-.73,4.21,0,1.33,.17,2.54,.5,3.61s.82,1.97,1.45,2.69c1.17,1.34,2.73,2.01,4.67,2.01,.97,0,1.84-.17,2.61-.5,.77-.34,1.37-.81,1.8-1.42,.49-.7,.85-1.66,1.07-2.85l.29,.05c-.16,1.34-.53,2.41-1.1,3.2-.54,.76-1.29,1.33-2.25,1.73-.96,.4-2.06,.6-3.32,.6-1.17,0-2.29-.17-3.36-.52-1.71-.56-3.04-1.57-4-3.04s-1.44-3.21-1.44-5.25c0-1.55,.28-2.99,.84-4.3s1.34-2.37,2.35-3.17c.77-.61,1.7-1.1,2.77-1.46,1.07-.36,2.15-.54,3.23-.54s2.12,.2,3.26,.59l1.04,.34c.2,.08,.38,.12,.54,.12,.21,0,.39-.09,.52-.27,.06-.08,.13-.22,.22-.42h.31v-.02Z"/><path d="M141.13,217.37v.29c-.48,.03-.88,.09-1.18,.2-.31,.11-.57,.29-.8,.53-.28,.29-.47,.65-.55,1.07-.09,.42-.13,1.15-.13,2.19v7.21c0,1.17,.04,2.02,.13,2.54,.09,.52,.27,1,.54,1.45,.41,.67,.91,1.16,1.51,1.46,.6,.3,1.35,.45,2.26,.45s1.73-.13,2.53-.4,1.47-.64,2.01-1.12c.33-.3,.57-.62,.73-.97s.26-.79,.31-1.33c.03-.35,.05-1.17,.05-2.47v-7.12c0-.88-.05-1.52-.15-1.94s-.28-.76-.54-1.03c-.24-.25-.51-.42-.81-.53-.3-.11-.7-.18-1.18-.2v-.29h5.87v.29c-.48,.03-.88,.09-1.18,.2s-.57,.29-.81,.53c-.26,.27-.44,.62-.54,1.04s-.15,1.06-.15,1.93v8.04c0,1.19-.09,2.07-.27,2.63s-.55,1.08-1.09,1.55c-1.24,1.07-3.01,1.61-5.31,1.61s-4.18-.5-5.31-1.52c-.74-.64-1.18-1.49-1.33-2.55-.05-.37-.08-1.05-.08-2.03v-7.74c0-.88-.05-1.52-.14-1.94-.09-.42-.28-.76-.55-1.03-.23-.25-.5-.42-.8-.53-.3-.11-.7-.18-1.19-.2v-.29h8.15v.02Z"/><path d="M153.05,234.76v-.31c.86,0,1.52-.24,1.99-.73,.26-.27,.44-.62,.54-1.04s.15-1.06,.15-1.93v-9.39c0-.9-.05-1.57-.16-1.99-.11-.43-.3-.78-.59-1.05-.24-.22-.5-.38-.8-.48-.29-.1-.67-.16-1.13-.18v-.29h8.14v.29c-.47,.03-.85,.09-1.15,.19s-.56,.26-.79,.48c-.29,.28-.48,.63-.59,1.06-.1,.42-.15,1.08-.15,1.98v7.35c0,1.13,.03,1.97,.09,2.52,.06,.55,.17,1,.34,1.35,.3,.61,.74,1.06,1.33,1.34s1.36,.43,2.33,.43,1.86-.13,2.56-.4c.69-.27,1.26-.68,1.7-1.24,.3-.38,.54-.82,.73-1.3s.37-1.12,.53-1.91l.31,.03-.17,5.22h-15.21Z"/><path d="M176.09,217.76c-.53,0-1.11,.02-1.72,.05-1.31,.07-2.28,.23-2.92,.5-.64,.26-1.17,.72-1.59,1.36-.38,.59-.68,1.4-.88,2.42l-.29-.03,.23-4.7h17.24l.23,4.7-.29,.03c-.23-1.18-.59-2.07-1.08-2.68s-1.2-1.04-2.14-1.31c-.79-.23-2.13-.34-4.02-.34v13c0,.87,.05,1.51,.15,1.93s.28,.77,.54,1.04c.24,.25,.51,.43,.81,.54s.69,.18,1.18,.2v.29h-8.14v-.29c.49-.03,.89-.09,1.19-.2s.57-.29,.81-.54c.26-.27,.44-.61,.54-1.03,.1-.42,.15-1.06,.15-1.94v-13Z"/><path d="M195.33,217.37v.29c-.48,.03-.88,.09-1.19,.2-.3,.11-.57,.29-.8,.53-.28,.29-.46,.65-.55,1.07s-.13,1.15-.13,2.19v7.21c0,1.17,.04,2.02,.13,2.54,.09,.52,.27,1,.54,1.45,.41,.67,.91,1.16,1.51,1.46,.6,.3,1.35,.45,2.26,.45s1.73-.13,2.53-.4,1.47-.64,2.01-1.12c.33-.3,.58-.62,.73-.97s.26-.79,.31-1.33c.03-.35,.05-1.17,.05-2.47v-7.12c0-.88-.05-1.52-.15-1.94s-.28-.76-.54-1.03c-.24-.25-.51-.42-.81-.53-.3-.11-.69-.18-1.18-.2v-.29h5.88v.29c-.48,.03-.88,.09-1.18,.2s-.57,.29-.81,.53c-.26,.27-.44,.62-.54,1.04s-.15,1.06-.15,1.93v8.04c0,1.19-.09,2.07-.27,2.63-.18,.57-.55,1.08-1.09,1.55-1.24,1.07-3.01,1.61-5.31,1.61s-4.18-.5-5.31-1.52c-.74-.64-1.18-1.49-1.33-2.55-.05-.37-.08-1.05-.08-2.03v-7.74c0-.88-.05-1.52-.14-1.94s-.28-.76-.55-1.03c-.23-.25-.5-.42-.8-.53-.3-.11-.7-.18-1.19-.2v-.29h8.15v.02Z"/><path d="M212.72,226.25v4.51c0,.87,.05,1.51,.15,1.93s.28,.77,.54,1.04c.23,.24,.5,.41,.8,.53,.3,.12,.7,.19,1.19,.21v.29h-8.14v-.29c.49-.03,.89-.1,1.19-.21,.3-.11,.57-.29,.8-.53,.27-.27,.45-.61,.55-1.03,.09-.42,.14-1.06,.14-1.94v-9.39c0-.88-.05-1.52-.14-1.94-.09-.42-.28-.76-.55-1.03-.23-.25-.5-.42-.8-.53-.31-.11-.7-.18-1.19-.2v-.29h6.14c1.03,0,1.7,0,2.03,.01,1.32,.06,2.35,.24,3.1,.54,.84,.34,1.49,.85,1.96,1.52,.46,.68,.7,1.46,.7,2.35,0,1.33-.5,2.39-1.5,3.19-.31,.24-.64,.43-1.01,.59-.37,.15-.86,.3-1.49,.43,.51,.21,.89,.43,1.13,.66,.19,.18,.37,.4,.54,.67,.16,.27,.4,.74,.73,1.42,.76,1.55,1.33,2.69,1.71,3.41,.39,.72,.71,1.24,.97,1.56,.21,.26,.42,.45,.62,.55,.2,.1,.47,.17,.82,.2v.29h-4.23c-.21-.47-.35-.76-.41-.89l-.89-2.03c-.54-1.22-1.08-2.29-1.62-3.23-.54-.93-1.04-1.56-1.49-1.9-.23-.17-.48-.29-.74-.36s-.59-.11-.97-.11h-.64Zm0-.28h.48c1.05,0,1.81-.06,2.26-.18,.46-.12,.88-.37,1.28-.74,.89-.85,1.34-1.9,1.34-3.16,0-.67-.13-1.3-.39-1.89s-.62-1.08-1.08-1.46c-.36-.29-.78-.49-1.27-.61-.49-.11-1.19-.17-2.1-.17h-.52v8.21h0Z"/><path d="M242.13,234.76h-8.37v-.29c.76-.07,1.28-.2,1.58-.38,.53-.33,.79-.79,.79-1.38,0-.35-.12-.82-.36-1.4l-.22-.54-1.22-3.01h-5.61l-.66,1.76-.32,.79c-.38,.93-.57,1.67-.57,2.2,0,.31,.07,.61,.21,.88,.14,.27,.33,.49,.57,.66,.33,.23,.76,.37,1.27,.41v.29h-5.71v-.29c.45-.03,.85-.14,1.19-.33s.67-.51,.99-.94c.27-.35,.54-.8,.8-1.35,.26-.55,.6-1.37,1.03-2.47l4.66-12.02h.73l5.54,13.39c.42,1.01,.75,1.73,.99,2.17,.25,.43,.51,.76,.8,.98,.2,.15,.44,.27,.7,.35,.26,.08,.66,.15,1.19,.21v.31Zm-8.01-7.52l-2.68-6.6-2.52,6.6h5.2Z"/><path d="M242.72,234.76v-.31c.86,0,1.52-.24,1.99-.73,.26-.27,.44-.62,.54-1.04s.15-1.06,.15-1.93v-9.39c0-.9-.05-1.57-.16-1.99-.11-.43-.3-.78-.59-1.05-.24-.22-.5-.38-.8-.48-.29-.1-.67-.16-1.13-.18v-.29h8.14v.29c-.47,.03-.85,.09-1.15,.19s-.56,.26-.79,.48c-.29,.28-.48,.63-.59,1.06-.1,.42-.15,1.08-.15,1.98v7.35c0,1.13,.03,1.97,.09,2.52,.06,.55,.17,1,.35,1.35,.3,.61,.74,1.06,1.33,1.34s1.36,.43,2.33,.43,1.86-.13,2.56-.4c.69-.27,1.26-.68,1.7-1.24,.3-.38,.54-.82,.73-1.3s.37-1.12,.53-1.91l.31,.03-.17,5.22h-15.22Z"/></g><g><path d="M73.37,240.72c-.54,0-1.11,.02-1.72,.05-1.31,.07-2.28,.23-2.92,.5-.64,.26-1.17,.72-1.59,1.36-.38,.59-.68,1.4-.88,2.42l-.29-.03,.23-4.7h17.24l.23,4.7-.29,.03c-.23-1.18-.59-2.07-1.08-2.68s-1.2-1.04-2.14-1.31c-.79-.23-2.13-.34-4.01-.34v13c0,.87,.05,1.51,.15,1.93,.1,.42,.28,.77,.54,1.04,.24,.25,.51,.43,.81,.54s.69,.18,1.18,.2v.29h-8.14v-.29c.49-.03,.89-.09,1.19-.2s.57-.29,.81-.54c.26-.27,.44-.61,.54-1.03,.1-.42,.15-1.06,.15-1.94v-13h0Z" style="fill:#eab848;"/><path d="M85.01,249.13c0-1.43,.31-2.75,.92-3.97s1.5-2.28,2.68-3.19c.88-.67,1.82-1.19,2.83-1.55,1.01-.36,2.03-.54,3.06-.54,1.31,0,2.57,.29,3.8,.86,1.22,.57,2.29,1.38,3.21,2.43,1.5,1.7,2.24,3.63,2.24,5.8,0,1.09-.2,2.14-.59,3.15-.39,1.01-.96,1.93-1.71,2.77-.92,1.04-2,1.84-3.26,2.41-1.25,.57-2.56,.85-3.93,.85s-2.64-.28-3.87-.83c-1.23-.55-2.29-1.33-3.19-2.35-.7-.79-1.25-1.69-1.62-2.7-.39-1-.57-2.05-.57-3.14Zm3.08,.2c0,2.47,.67,4.55,2.01,6.24,.6,.76,1.24,1.31,1.92,1.65,.68,.35,1.45,.52,2.34,.52s1.68-.17,2.35-.51c.68-.34,1.32-.89,1.93-1.66,1.34-1.7,2.01-3.8,2.01-6.29,0-1.37-.18-2.66-.55-3.88-.37-1.22-.89-2.25-1.56-3.11-.54-.7-1.15-1.2-1.82-1.52s-1.46-.48-2.36-.48-1.68,.16-2.34,.47-1.27,.82-1.83,1.53c-.67,.84-1.19,1.88-1.55,3.1-.37,1.22-.55,2.53-.55,3.94Z" style="fill:#eab848;"/><path d="M113.54,240.32v.29c-.48,.03-.88,.09-1.19,.2s-.57,.29-.8,.53c-.28,.29-.47,.65-.55,1.07-.09,.42-.13,1.15-.13,2.19v7.21c0,1.17,.04,2.02,.13,2.54,.09,.52,.27,1,.54,1.45,.41,.67,.91,1.16,1.51,1.46,.6,.3,1.35,.45,2.26,.45s1.73-.13,2.53-.4,1.47-.64,2.01-1.12c.33-.3,.58-.62,.73-.97,.16-.35,.26-.79,.31-1.33,.03-.35,.05-1.17,.05-2.47v-7.12c0-.88-.05-1.52-.15-1.94s-.28-.76-.54-1.03c-.24-.25-.51-.42-.81-.53-.3-.11-.69-.18-1.18-.2v-.29h5.88v.3c-.48,.03-.88,.09-1.18,.2s-.57,.29-.81,.53c-.26,.27-.44,.62-.54,1.04s-.15,1.06-.15,1.93v8.04c0,1.19-.09,2.07-.27,2.63-.18,.57-.55,1.08-1.09,1.55-1.24,1.07-3.01,1.61-5.31,1.61s-4.18-.5-5.31-1.52c-.74-.64-1.18-1.49-1.33-2.55-.05-.37-.08-1.05-.08-2.03v-7.74c0-.88-.05-1.52-.14-1.94-.09-.42-.28-.76-.55-1.03-.23-.25-.5-.42-.8-.53-.3-.11-.7-.18-1.19-.2v-.29h8.15Z" style="fill:#eab848;"/><path d="M130.7,249.2v4.51c0,.87,.05,1.51,.15,1.93s.28,.77,.54,1.04c.23,.24,.5,.41,.8,.53,.3,.12,.7,.19,1.19,.21v.29h-8.14v-.29c.49-.03,.89-.1,1.19-.21,.3-.11,.57-.29,.8-.53,.27-.27,.46-.61,.55-1.03,.09-.42,.14-1.06,.14-1.94v-9.39c0-.88-.05-1.52-.14-1.94-.09-.42-.28-.76-.55-1.03-.23-.25-.5-.42-.8-.53-.31-.11-.7-.18-1.19-.2v-.29h6.14c1.03,0,1.7,0,2.03,.01,1.32,.06,2.35,.24,3.1,.54,.84,.34,1.49,.85,1.96,1.52,.46,.68,.69,1.46,.69,2.35,0,1.33-.5,2.39-1.5,3.19-.3,.24-.64,.43-1.01,.59-.37,.15-.86,.3-1.49,.43,.51,.21,.89,.43,1.13,.66,.19,.18,.37,.4,.53,.67s.4,.74,.73,1.42c.76,1.55,1.33,2.69,1.71,3.41,.39,.72,.71,1.24,.97,1.56,.21,.26,.42,.45,.62,.55,.2,.1,.47,.17,.82,.2v.29h-4.23c-.21-.47-.35-.76-.41-.89l-.89-2.03c-.53-1.22-1.07-2.29-1.62-3.23-.54-.93-1.04-1.56-1.49-1.9-.23-.17-.48-.29-.74-.36-.26-.07-.59-.11-.97-.11h-.62Zm0-.28h.48c1.05,0,1.81-.06,2.26-.18s.88-.37,1.28-.74c.89-.85,1.34-1.9,1.34-3.16,0-.67-.13-1.3-.39-1.89s-.62-1.08-1.08-1.46c-.36-.29-.78-.49-1.27-.61-.49-.11-1.19-.17-2.1-.17h-.52v8.21h0Z" style="fill:#eab848;"/><path d="M150.27,240.32v.29c-.48,.03-.88,.09-1.18,.2s-.57,.29-.81,.53c-.33,.34-.54,.81-.61,1.42-.05,.45-.08,.97-.08,1.55v9.39c0,.7,.03,1.26,.1,1.67s.18,.74,.33,.98c.22,.34,.5,.59,.85,.76s.81,.27,1.39,.3v.29h-8.14v-.29c.49-.03,.89-.1,1.19-.21,.3-.11,.57-.29,.8-.53,.27-.27,.45-.61,.55-1.03s.14-1.06,.14-1.94v-9.39c0-.88-.05-1.52-.14-1.94s-.28-.76-.55-1.03c-.23-.25-.5-.42-.8-.53-.31-.11-.7-.18-1.19-.2v-.29h8.15Z" style="fill:#eab848;"/><path d="M152.15,257.67l.04-5.26h.29c.36,1.35,.78,2.4,1.27,3.18,.93,1.42,2.09,2.14,3.49,2.14,.98,0,1.78-.33,2.42-.98,.64-.65,.96-1.48,.96-2.48,0-.43-.07-.88-.21-1.33-.14-.45-.33-.84-.57-1.16-.25-.33-.59-.65-1.04-.96s-1.13-.69-2.05-1.16c-.81-.41-1.42-.75-1.85-1.03s-.77-.56-1.04-.85c-.73-.8-1.1-1.77-1.1-2.92,0-.7,.14-1.38,.43-2.04,.28-.65,.68-1.21,1.19-1.68,.9-.83,1.97-1.25,3.2-1.25,.4,0,.77,.04,1.11,.12s.79,.24,1.36,.48c.42,.17,.71,.28,.87,.32,.15,.05,.29,.07,.41,.07,.3,0,.5-.22,.6-.65h.3l.09,5.06h-.29c-.23-.81-.43-1.43-.59-1.85-.16-.43-.36-.83-.59-1.19-.42-.66-.87-1.15-1.37-1.47-.5-.32-1.08-.48-1.73-.48-.95,0-1.7,.32-2.25,.97-.23,.26-.41,.57-.54,.93s-.2,.71-.2,1.07c0,1.42,.91,2.56,2.74,3.43l1.79,.87c1.38,.65,2.38,1.38,2.99,2.17,.7,.88,1.04,1.91,1.04,3.09,0,.78-.16,1.53-.47,2.24-.44,.99-1.1,1.76-1.99,2.29-.88,.54-1.92,.81-3.12,.81-1.1,0-2.15-.22-3.16-.65-.53-.23-.84-.36-.94-.39s-.22-.05-.34-.05c-.41,0-.69,.2-.84,.61h-.31v-.02Z" style="fill:#eab848;"/><path d="M187.03,240.61c-.48,.03-.87,.09-1.17,.2-.29,.11-.56,.28-.81,.53-.19,.18-.33,.38-.42,.59-.09,.22-.16,.49-.19,.82-.06,.44-.09,.96-.09,1.57v9.39c0,.88,.05,1.53,.15,1.95,.1,.43,.28,.77,.55,1.02,.47,.45,1.13,.7,1.98,.74v.29h-8.14v-.29c.49-.03,.89-.1,1.19-.21,.3-.11,.57-.29,.81-.53,.26-.27,.44-.62,.54-1.04s.15-1.06,.15-1.93v-11.39l-6.56,15.4h-.27l-6.53-15.17v11.16c0,.88,.05,1.52,.15,1.94s.28,.76,.54,1.03c.24,.25,.51,.43,.81,.54s.69,.18,1.18,.2v.29h-5.88v-.29c.48-.03,.88-.09,1.18-.2s.57-.29,.81-.54c.26-.27,.44-.62,.54-1.04s.15-1.06,.15-1.93v-9.39c0-.39-.01-.76-.04-1.11-.04-.63-.14-1.09-.29-1.38-.21-.4-.5-.69-.87-.88s-.86-.3-1.47-.34v-.29h5.53l5.52,13.62,5.72-13.62h5.24v.29h0Z" style="fill:#eab848;"/></g><g><path d="M160.48,72.22l-5.03-.15c-.1-4.1-.15-7.74-.15-10.93s.15-6.11,.46-8.46c.3-2.35,.94-4.3,1.91-5.82s2.37-2.64,4.22-3.35,4.3-1.07,7.34-1.07c1.93,0,4.15,.05,6.66,.15s5.15,.2,7.93,.3c2.78,.1,5.63,.2,8.56,.3,2.93,.1,5.77,.15,8.51,.15,4.61,0,8.67-.01,12.2-.03,3.52-.02,6.66-.04,9.4-.08,2.74-.03,5.15-.08,7.22-.15s3.96-.17,5.67-.3c1.71-.14,3.3-.3,4.78-.48,1.47-.19,2.97-.41,4.5-.69,.58,1.63,.86,2.97,.86,4.02,0,2.24-.94,3.95-2.82,5.13-1.88,1.19-4.67,1.78-8.36,1.78-3.49,0-7.6-.21-12.33-.64-4.73-.42-10.06-.84-15.99-1.25-.1,5.02-.23,10.37-.38,16.06s-.31,11.58-.48,17.66c-.17,6.08-.35,12.3-.53,18.65-.19,6.35-.38,12.71-.58,19.06s-.4,12.65-.58,18.88c-.19,6.24-11.09,17.23-11.26,23.06l-1.32-3.44-.91-.1c.27-6.47,.52-12.68,.76-18.63,.24-5.95,.46-11.78,.66-17.51s.39-11.44,.56-17.15c.17-5.71,.3-11.58,.41-17.61,.1-6.03,.19-12.31,.25-18.83,.07-6.52,.1-13.46,.1-20.81-1.93-.07-3.9-.13-5.9-.18s-4.03-.08-6.1-.08-4,.03-5.79,.1c-1.8,.07-3.44,.3-4.93,.71s-2.83,1.04-4.02,1.91c-1.19,.86-2.19,2.08-3,3.66-.81,1.58-1.43,3.58-1.86,6.02-.42,2.44-.64,5.42-.64,8.95v1.19h0Z" style="fill:#231f20;"/><path d="M190.91,160.95l-1.31-.14v-.32c.28-6.47,.53-12.68,.77-18.63,.24-5.95,.46-11.78,.66-17.51s.39-11.44,.56-17.15c.17-5.76,.31-11.69,.41-17.61,.1-5.92,.19-12.26,.25-18.83,.07-6.49,.1-13.39,.1-20.48-1.83-.06-3.68-.12-5.57-.17-3.97-.1-8.29-.11-11.87,.03-1.77,.07-3.4,.3-4.85,.7-1.45,.39-2.76,1.02-3.91,1.85-1.14,.83-2.11,2.02-2.9,3.54-.8,1.54-1.41,3.53-1.82,5.93-.42,2.41-.63,5.4-.63,8.89v1.52l-5.7-.17v-.32c-.11-4.08-.16-7.76-.16-10.94s.15-6.15,.46-8.51c.31-2.39,.97-4.4,1.96-5.96,1-1.58,2.48-2.75,4.38-3.49,1.88-.72,4.39-1.09,7.47-1.09,1.93,0,4.17,.05,6.67,.15,2.51,.1,5.15,.2,7.93,.3,2.78,.1,5.63,.2,8.56,.3,2.91,.1,5.77,.15,8.5,.15,4.61,0,8.67-.01,12.2-.03,3.52-.02,6.66-.04,9.4-.08,2.73-.03,5.15-.08,7.21-.15,2.05-.07,3.95-.17,5.65-.3,1.69-.13,3.3-.3,4.76-.48,1.46-.18,2.97-.41,4.48-.68l.28-.05,.1,.27c.59,1.66,.88,3.05,.88,4.13,0,2.35-1,4.17-2.98,5.42-1.93,1.22-4.8,1.83-8.54,1.83-3.49,0-7.65-.21-12.36-.64-4.62-.41-9.88-.82-15.63-1.22-.1,4.91-.23,10.15-.37,15.71-.15,5.69-.31,11.58-.48,17.66-.17,6.08-.35,12.3-.53,18.65-.19,6.35-.38,12.71-.58,19.06-.2,6.35-.4,12.65-.58,18.88-.19,6.24-11.09,17.23-11.26,23.06v.29l-1.61-3.37Zm-.6-.74l.6,.07,.96,3.48c.17-5.74,11.06-16.64,11.25-22.77,.19-6.23,.38-12.53,.58-18.88,.2-6.35,.4-12.71,.58-19.06,.19-6.35,.36-12.57,.53-18.65s.33-11.97,.48-17.66c.15-5.69,.28-11.05,.38-16.06v-.35l.36,.02c5.89,.4,11.27,.82,15.99,1.25,4.69,.42,8.83,.63,12.3,.63s6.36-.58,8.18-1.73c1.79-1.13,2.66-2.72,2.66-4.85,0-.95-.25-2.17-.75-3.63-1.43,.25-2.85,.46-4.23,.64-1.48,.19-3.09,.35-4.79,.48-1.71,.14-3.62,.24-5.68,.31s-4.49,.12-7.22,.15c-2.75,.03-5.88,.06-9.41,.08-3.52,.02-7.59,.03-12.2,.03-2.74,0-5.61-.05-8.53-.15-2.93-.1-5.79-.2-8.57-.3-2.78-.1-5.42-.2-7.93-.3-2.49-.1-4.73-.15-6.65-.15-2.99,0-5.43,.35-7.22,1.05-1.77,.68-3.13,1.76-4.06,3.22-.93,1.48-1.56,3.39-1.86,5.68-.3,2.33-.46,5.16-.46,8.42,0,3.09,.05,6.65,.14,10.6l4.36,.13v-.82c0-3.53,.22-6.56,.64-9,.43-2.46,1.06-4.52,1.89-6.12,.83-1.62,1.88-2.89,3.1-3.78,1.21-.88,2.6-1.54,4.13-1.96,1.51-.41,3.19-.65,5.01-.72,3.6-.13,7.93-.13,11.92-.03,2,.05,3.97,.11,5.9,.18h.33v.34c0,7.22-.03,14.22-.1,20.82-.07,6.58-.16,12.91-.25,18.83-.1,5.92-.24,11.85-.41,17.62-.17,5.71-.36,11.43-.56,17.16s-.42,11.56-.66,17.51c-.22,5.8-.47,11.91-.73,18.27Z" style="fill:#231f20;"/></g></g></g></g></svg>