<?xml version="1.0" encoding="UTF-8"?><svg xmlns="http://www.w3.org/2000/svg" viewBox="0 0 187.69 189.02"><g id="a"/><g id="b"><g id="c"><path d="M110.08,91.95v2.53h.62v2.51h.6v29.7h8.81v-29.7h.62v-2.51h.83v-2.53h-11.48Z" style="fill:#231f20; stroke:#231f20; stroke-miterlimit:10; stroke-width:.2px;"/><path d="M111.99,89.98h7.4v-12.97h.72v-1.27h-8.75v1.39h.72s-.09,12.81-.09,12.85Z" style="fill:#231f20; stroke:#231f20; stroke-miterlimit:10; stroke-width:.2px;"/><path d="M112.43,74.07h6.72s4.57-3.1-3.54-9.31c0,0-7.16,6.44-3.18,9.31Z" style="fill:#231f20; stroke:#231f20; stroke-miterlimit:10; stroke-width:.2px;"/><g><path d="M90.43,124.48v7.03l-24.03-6.64s.36-12.92,.37-13.96c1.94,8.37,7.41,1.49,7.41,1.49,7.78,14.76,16.25-1.26,16.25-1.26v13.34Z" style="fill:#231f20;"/><path d="M92.6,110.68l.11,20.83,23.35-6.52,.11-14.08s-1.95,8.7-7.55,.92c.01-.01-5.83,15.9-16.02-1.15Z" style="fill:#231f20;"/><polygon points="66.85 87.79 66.85 95.34 90.43 91.79 90.54 81.38 66.85 87.79" style="fill:#231f20;"/><polygon points="92.6 81.38 92.6 91.68 115.84 95.11 116.18 87.9 92.6 81.38" style="fill:#231f20;"/><path d="M92.45,94.2l23.58,3.97-.04,9.96s-2.17,7.93-7.21-3.32c0,0-4.16,16.4-16.14-3.05l-.19-7.56Z" style="fill:#231f20;"/><path d="M90.43,94.58l-23.65,3.89v9.54s2.98,7.71,7.17-3.2c0,0,5.26,17.09,16.71-3.36l-.23-6.87Z" style="fill:#231f20;"/><polygon points="89.55 96.94 67.24 100.07 67.24 101.9 89.55 98.93 89.55 96.94" style="fill:#eab848;"/><polygon points="93.56 96.91 115.34 100 115.34 101.9 93.52 99.23 93.56 96.91" style="fill:#eab848;"/><polygon points="90.43 91.79 66.85 95.34 66.78 98.47 90.43 94.58 90.43 91.79" style="fill:#fff;"/><polygon points="92.6 91.68 92.45 94.2 116.03 98.16 115.84 95.11 92.6 91.68" style="fill:#fff;"/><polygon points="90.54 81.38 92.6 81.38 92.72 131.51 90.43 131.51 90.54 81.38" style="fill:#fff;"/><path d="M92.64,101.75s10.22,19.38,16.14,3.05c0,0,4.73,10.95,7.21,3.32l.19,2.78s-1.95,8.7-7.55,.92c0,0-5.84,16.02-16.02-1.14l.03-8.93Z" style="fill:#fff;"/><path d="M66.78,108.01v2.9s1.68,8.58,7.4,1.49c0,0,6.52,14.65,16.25-1.26l.23-9.69s-10.19,20.03-16.71,3.36c0-.01-3.82,10.71-7.17,3.2Z" style="fill:#fff;"/></g><path d="M118.43,61.25c-.35,1.2-1.45,2.08-2.77,2.08-1.59,0-2.88-1.29-2.88-2.88,0-1.28,.83-2.36,1.99-2.74-.53,.47-.87,1.15-.87,1.91,0,1.41,1.15,2.55,2.56,2.55,.79,.01,1.51-.35,1.97-.92Z" style="fill:#231f20;"/><g><path d="M37.35,71.1v4.96h1v4.92h.97v58.32h14.28v-58.32h1.01v-4.92h1.34v-4.96h-18.6Z" style="fill:#fff; stroke:#fff; stroke-miterlimit:10; stroke-width:.35px;"/><path d="M40.44,67.23h11.99v-25.46h1.16v-2.5h-14.19v2.73h1.16s-.12,25.15-.12,25.23Z" style="fill:#fff; stroke:#fff; stroke-miterlimit:10; stroke-width:.35px;"/><path d="M41.15,35.99h10.9s7.42-6.09-5.74-18.28c0,0-11.61,12.66-5.16,18.28Z" style="fill:#fff; stroke:#fff; stroke-miterlimit:10; stroke-width:.35px;"/><path d="M53.68,9.43c-.8,2.78-3.37,4.81-6.4,4.81-3.69,0-6.67-2.98-6.67-6.67,0-2.96,1.93-5.47,4.6-6.34-1.23,1.08-2.01,2.66-2.01,4.43,0,3.27,2.65,5.91,5.92,5.91,1.84,0,3.48-.83,4.56-2.14Z" style="fill:#fff; stroke:#fff; stroke-miterlimit:10;"/></g><path d="M146.26,108.55c-7.26,21.53-28.06,36.6-51.89,35.55-28.93-1.27-51.29-25.68-50.02-54.61,1.02-23.19,17.01-42.26,38.3-48.15-10.01,8.02-16.67,20.17-17.28,34.04-1.12,25.65,18.77,47.3,44.42,48.43,14.36,.63,27.57-5.36,36.47-15.26Z" style="fill:#fff;"/><g><path d="M5.93,159.32v.21c-.35,.02-.64,.07-.86,.15s-.42,.21-.59,.39c-.24,.25-.39,.59-.44,1.03-.04,.33-.06,.7-.06,1.13v6.83c0,.51,.02,.92,.07,1.21,.05,.3,.13,.54,.24,.71,.16,.25,.37,.43,.62,.55s.59,.19,1.01,.22v.21H0v-.21c.36-.02,.65-.07,.87-.15s.41-.21,.58-.38c.2-.2,.33-.45,.4-.75,.07-.3,.1-.77,.1-1.41v-6.83c0-.64-.03-1.11-.1-1.41-.07-.3-.2-.55-.4-.75-.17-.18-.36-.31-.58-.39-.22-.08-.51-.13-.86-.15v-.21H5.93Z" style="fill:#fff;"/><path d="M7.46,171.94l.03-3.83h.21c.26,.98,.57,1.75,.93,2.31,.67,1.04,1.52,1.55,2.54,1.55,.71,0,1.3-.24,1.76-.71,.46-.48,.7-1.08,.7-1.81,0-.32-.05-.64-.15-.96-.1-.33-.24-.61-.41-.84-.18-.24-.43-.47-.76-.7-.32-.22-.82-.5-1.49-.84-.59-.3-1.04-.55-1.35-.75-.31-.2-.56-.41-.76-.62-.53-.58-.8-1.29-.8-2.12,0-.51,.1-1.01,.31-1.48,.21-.48,.5-.88,.87-1.22,.65-.61,1.43-.91,2.33-.91,.29,0,.56,.03,.81,.09s.58,.17,.99,.35c.31,.12,.52,.2,.63,.24,.11,.03,.21,.05,.3,.05,.22,0,.36-.16,.44-.47h.21l.06,3.68h-.21c-.17-.59-.31-1.04-.43-1.35s-.26-.6-.43-.87c-.3-.48-.64-.84-1-1.07s-.78-.35-1.26-.35c-.69,0-1.24,.24-1.64,.71-.17,.19-.3,.42-.39,.68-.1,.26-.14,.52-.14,.78,0,1.03,.66,1.87,1.99,2.5l1.3,.63c1.01,.48,1.73,1,2.18,1.58,.51,.64,.76,1.39,.76,2.25,0,.57-.11,1.11-.34,1.63-.32,.72-.8,1.28-1.45,1.67-.64,.39-1.4,.59-2.27,.59-.8,0-1.56-.16-2.3-.47-.38-.17-.61-.26-.69-.29-.07-.03-.16-.04-.25-.04-.3,0-.5,.15-.61,.44h-.22v-.03Z" style="fill:#fff;"/><path d="M16.99,171.97v-.22c.62,0,1.11-.18,1.45-.53,.19-.2,.32-.45,.39-.75,.07-.31,.11-.77,.11-1.4v-6.83c0-.66-.04-1.14-.12-1.45s-.22-.57-.43-.76c-.17-.16-.37-.28-.58-.35s-.49-.12-.82-.13v-.21h5.92v.21c-.34,.02-.62,.06-.83,.14-.22,.07-.41,.19-.57,.35-.21,.2-.35,.46-.43,.77-.07,.31-.11,.79-.11,1.44v5.35c0,.82,.02,1.43,.06,1.84,.04,.4,.13,.73,.25,.98,.22,.44,.54,.77,.96,.98s.99,.31,1.7,.31,1.35-.1,1.86-.29c.5-.19,.92-.5,1.24-.9,.22-.28,.39-.59,.53-.95,.14-.35,.27-.82,.38-1.39l.22,.02-.12,3.8h-11.06v-.03Z" style="fill:#fff;"/><path d="M41.64,171.97h-6.09v-.21c.55-.05,.93-.14,1.15-.28,.38-.24,.57-.57,.57-1,0-.25-.09-.59-.26-1.02l-.16-.39-.89-2.19h-4.08l-.48,1.28-.23,.58c-.28,.68-.42,1.21-.42,1.6,0,.23,.05,.44,.15,.64,.1,.2,.24,.36,.41,.48,.24,.17,.55,.27,.93,.3v.21h-4.15v-.21c.33-.02,.61-.1,.86-.24,.25-.14,.49-.37,.72-.69,.2-.25,.39-.58,.58-.98,.19-.4,.44-1,.75-1.79l3.39-8.74h.53l4.03,9.74c.3,.74,.54,1.26,.72,1.58,.18,.31,.37,.55,.58,.71,.15,.11,.32,.2,.51,.25,.19,.06,.48,.11,.86,.15v.22h.02Zm-5.82-5.47l-1.95-4.8-1.83,4.8h3.78Z" style="fill:#fff;"/><path d="M58.08,159.53c-.35,.02-.63,.07-.85,.14s-.41,.21-.59,.38c-.14,.13-.24,.27-.31,.43-.07,.16-.11,.36-.14,.6-.04,.32-.06,.7-.06,1.14v6.83c0,.64,.04,1.11,.11,1.42,.07,.31,.21,.56,.4,.74,.34,.33,.82,.51,1.44,.54v.21h-5.92v-.21c.36-.02,.65-.07,.87-.15s.42-.21,.59-.38c.19-.2,.32-.45,.39-.75,.07-.31,.11-.77,.11-1.4v-8.29l-4.77,11.2h-.19l-4.75-11.03v8.12c0,.64,.04,1.11,.11,1.41,.07,.3,.2,.55,.39,.75,.17,.18,.37,.31,.59,.39s.51,.13,.86,.15v.21h-4.27v-.21c.35-.02,.64-.07,.86-.15s.42-.21,.59-.39c.19-.2,.32-.45,.39-.75,.07-.31,.11-.77,.11-1.4v-6.83c0-.28,0-.55-.03-.81-.03-.46-.1-.79-.21-1-.15-.29-.37-.5-.63-.64-.27-.14-.63-.22-1.07-.25v-.21h4.02l4.01,9.91,4.16-9.91h3.81v.19h-.02Z" style="fill:#fff;"/><path d="M65.09,159.32v.21c-.35,.02-.64,.07-.86,.15s-.42,.21-.59,.39c-.24,.25-.39,.59-.44,1.03-.04,.33-.06,.7-.06,1.13v6.83c0,.51,.02,.92,.07,1.21,.05,.3,.13,.54,.24,.71,.16,.25,.37,.43,.62,.55s.59,.19,1.01,.22v.21h-5.92v-.21c.36-.02,.65-.07,.87-.15s.41-.21,.58-.38c.2-.2,.33-.45,.4-.75s.1-.77,.1-1.41v-6.83c0-.64-.03-1.11-.1-1.41-.07-.3-.2-.55-.4-.75-.17-.18-.36-.31-.58-.39-.22-.08-.51-.13-.86-.15v-.21h5.92Z" style="fill:#fff;"/><path d="M77.57,159.26l.11,4.14h-.21c-.07-.18-.12-.32-.16-.41-.22-.59-.39-1.04-.53-1.33-.24-.52-.59-1-1.05-1.43-.35-.33-.7-.57-1.08-.71-.37-.15-.79-.22-1.25-.22-.7,0-1.3,.15-1.82,.45-.45,.27-.87,.65-1.26,1.14-.39,.5-.71,1.06-.95,1.7-.35,.9-.53,1.92-.53,3.06,0,.97,.12,1.84,.36,2.62s.59,1.43,1.06,1.96c.85,.98,1.98,1.46,3.39,1.46,.7,0,1.34-.12,1.9-.37,.56-.24,1-.59,1.31-1.03,.36-.51,.62-1.21,.78-2.08l.21,.04c-.12,.98-.38,1.75-.8,2.33-.4,.55-.94,.97-1.64,1.26s-1.5,.44-2.41,.44c-.85,0-1.67-.13-2.45-.38-1.24-.41-2.21-1.14-2.91-2.21-.7-1.07-1.05-2.34-1.05-3.81,0-1.13,.2-2.17,.61-3.13,.41-.95,.98-1.72,1.71-2.3,.56-.45,1.23-.8,2.02-1.06,.78-.26,1.56-.39,2.35-.39s1.54,.14,2.37,.43l.76,.25c.15,.06,.28,.08,.39,.08,.15,0,.28-.07,.38-.2,.04-.06,.1-.16,.16-.31h.23Z" style="fill:#fff;"/><path d="M95.37,159.26l.11,4.14h-.21c-.07-.18-.12-.32-.16-.41-.22-.59-.39-1.04-.53-1.33-.24-.52-.59-1-1.05-1.43-.35-.33-.71-.57-1.08-.71-.37-.15-.79-.22-1.25-.22-.7,0-1.3,.15-1.82,.45-.45,.27-.87,.65-1.26,1.14-.39,.5-.71,1.06-.95,1.7-.35,.9-.53,1.92-.53,3.06,0,.97,.12,1.84,.36,2.62s.59,1.43,1.06,1.96c.85,.98,1.98,1.46,3.39,1.46,.7,0,1.34-.12,1.9-.37,.56-.24,1-.59,1.31-1.03,.36-.51,.62-1.21,.78-2.08l.21,.04c-.12,.98-.38,1.75-.8,2.33-.4,.55-.94,.97-1.64,1.26s-1.5,.44-2.42,.44c-.85,0-1.67-.13-2.45-.38-1.24-.41-2.21-1.14-2.91-2.21-.7-1.07-1.05-2.34-1.05-3.81,0-1.13,.2-2.17,.61-3.13,.41-.95,.98-1.72,1.71-2.3,.56-.45,1.23-.8,2.02-1.06,.78-.26,1.56-.39,2.35-.39s1.54,.14,2.37,.43l.76,.25c.15,.06,.28,.08,.39,.08,.15,0,.28-.07,.38-.2,.04-.06,.1-.16,.16-.31h.24Z" style="fill:#fff;"/><path d="M102.64,159.32v.21c-.35,.02-.64,.07-.86,.15-.22,.08-.42,.21-.58,.39-.2,.21-.34,.47-.4,.78-.07,.31-.1,.84-.1,1.59v5.25c0,.85,.03,1.47,.1,1.85,.06,.38,.2,.73,.39,1.05,.3,.49,.66,.84,1.1,1.06s.98,.33,1.65,.33,1.26-.1,1.84-.29c.58-.2,1.07-.46,1.46-.81,.24-.22,.42-.45,.53-.7s.19-.58,.23-.96c.02-.25,.04-.85,.04-1.8v-5.18c0-.64-.04-1.11-.11-1.41-.07-.3-.2-.55-.39-.75-.17-.18-.37-.31-.59-.39-.22-.08-.51-.13-.86-.15v-.21h4.27v.21c-.35,.02-.64,.07-.86,.15s-.42,.21-.59,.39c-.19,.2-.32,.45-.39,.76s-.11,.77-.11,1.4v5.85c0,.87-.07,1.5-.2,1.91s-.4,.79-.79,1.13c-.9,.78-2.19,1.17-3.87,1.17s-3.04-.37-3.86-1.1c-.54-.47-.86-1.09-.96-1.85-.04-.27-.06-.76-.06-1.47v-5.63c0-.64-.03-1.11-.1-1.41-.07-.3-.2-.55-.4-.75-.17-.18-.36-.31-.58-.39-.22-.08-.51-.13-.87-.15v-.21h5.92v-.02Z" style="fill:#fff;"/><path d="M111.31,171.97v-.22c.62,0,1.11-.18,1.45-.53,.19-.2,.32-.45,.39-.75s.11-.77,.11-1.4v-6.83c0-.66-.04-1.14-.12-1.45s-.22-.57-.43-.76c-.17-.16-.37-.28-.58-.35s-.49-.12-.82-.13v-.21h5.92v.21c-.34,.02-.62,.06-.83,.14-.22,.07-.41,.19-.58,.35-.21,.2-.35,.46-.43,.77-.07,.31-.11,.79-.11,1.44v5.35c0,.82,.02,1.43,.06,1.84,.04,.4,.13,.73,.25,.98,.22,.44,.54,.77,.96,.98,.43,.21,.99,.31,1.7,.31s1.35-.1,1.86-.29c.5-.19,.92-.5,1.24-.9,.22-.28,.39-.59,.53-.95,.14-.35,.27-.82,.38-1.39l.22,.02-.12,3.8h-11.05v-.03Z" style="fill:#fff;"/><path d="M128.06,159.61c-.39,0-.81,.01-1.25,.04-.95,.05-1.66,.17-2.13,.36-.47,.19-.85,.52-1.15,.99-.28,.43-.49,1.02-.64,1.76l-.21-.02,.17-3.42h12.54l.17,3.42-.21,.02c-.17-.86-.43-1.51-.78-1.95-.36-.44-.87-.76-1.55-.95-.57-.17-1.55-.25-2.92-.25v9.45c0,.63,.04,1.1,.11,1.4,.07,.31,.2,.56,.39,.75,.17,.18,.37,.31,.59,.39,.22,.08,.5,.13,.86,.15v.21h-5.92v-.21c.36-.02,.65-.07,.87-.15s.42-.21,.59-.39c.19-.2,.32-.45,.39-.75s.11-.77,.11-1.41v-9.44h-.03Z" style="fill:#fff;"/><path d="M142.05,159.32v.21c-.35,.02-.64,.07-.86,.15-.22,.08-.42,.21-.58,.39-.2,.21-.34,.47-.4,.78-.07,.31-.1,.84-.1,1.59v5.25c0,.85,.03,1.47,.1,1.85,.06,.38,.2,.73,.39,1.05,.3,.49,.66,.84,1.1,1.06s.98,.33,1.64,.33,1.26-.1,1.84-.29c.58-.2,1.07-.46,1.46-.81,.24-.22,.42-.45,.53-.7s.19-.58,.23-.96c.02-.25,.04-.85,.04-1.8v-5.18c0-.64-.04-1.11-.11-1.41-.07-.3-.2-.55-.39-.75-.17-.18-.37-.31-.59-.39-.22-.08-.5-.13-.86-.15v-.21h4.27v.21c-.35,.02-.64,.07-.86,.15-.22,.08-.42,.21-.59,.39-.19,.2-.32,.45-.39,.76s-.11,.77-.11,1.4v5.85c0,.87-.07,1.5-.2,1.91s-.4,.79-.79,1.13c-.9,.78-2.19,1.17-3.87,1.17s-3.04-.37-3.87-1.1c-.54-.47-.86-1.09-.96-1.85-.04-.27-.06-.76-.06-1.47v-5.63c0-.64-.03-1.11-.1-1.41s-.2-.55-.4-.75c-.17-.18-.36-.31-.58-.39-.22-.08-.51-.13-.87-.15v-.21h5.94v-.02Z" style="fill:#fff;"/><path d="M154.7,165.78v3.28c0,.63,.04,1.1,.11,1.4s.2,.56,.39,.75c.17,.17,.36,.3,.58,.38,.22,.08,.51,.13,.87,.15v.21h-5.92v-.21c.36-.02,.65-.07,.87-.15s.41-.21,.58-.38c.2-.2,.33-.45,.4-.75s.1-.77,.1-1.41v-6.83c0-.64-.03-1.11-.1-1.41-.07-.3-.2-.55-.4-.75-.17-.18-.36-.31-.58-.39s-.51-.13-.86-.15v-.21h4.47c.75,0,1.24,0,1.47,.01,.96,.04,1.71,.17,2.25,.39,.61,.25,1.09,.62,1.42,1.11s.51,1.06,.51,1.71c0,.96-.37,1.74-1.09,2.32-.22,.17-.47,.32-.74,.43s-.63,.22-1.08,.31c.37,.16,.65,.32,.83,.48,.14,.13,.27,.29,.39,.49,.12,.19,.29,.54,.53,1.03,.55,1.13,.96,1.96,1.25,2.48,.28,.52,.52,.9,.71,1.14,.15,.19,.3,.32,.45,.4,.14,.07,.34,.12,.6,.15v.21h-3.08c-.16-.34-.25-.56-.3-.65l-.65-1.47c-.39-.88-.78-1.67-1.18-2.35-.4-.67-.76-1.13-1.08-1.38-.17-.12-.35-.21-.54-.26s-.43-.08-.7-.08h-.48Zm0-.2h.35c.77,0,1.32-.04,1.65-.13s.64-.27,.93-.54c.65-.62,.97-1.38,.97-2.3,0-.49-.09-.95-.28-1.38s-.45-.78-.78-1.06c-.26-.21-.57-.36-.93-.44s-.87-.12-1.53-.12h-.38v5.97Z" style="fill:#fff;"/><path d="M176.09,171.97h-6.09v-.21c.55-.05,.93-.14,1.15-.28,.38-.24,.58-.57,.58-1,0-.25-.09-.59-.26-1.02l-.16-.39-.89-2.19h-4.08l-.48,1.28-.23,.58c-.28,.68-.42,1.21-.42,1.6,0,.23,.05,.44,.15,.64s.24,.36,.41,.48c.24,.17,.55,.27,.93,.3v.21h-4.15v-.21c.33-.02,.62-.1,.86-.24,.25-.14,.49-.37,.72-.69,.2-.25,.39-.58,.58-.98,.19-.4,.44-1,.75-1.79l3.39-8.74h.53l4.03,9.74c.3,.74,.54,1.26,.72,1.58,.18,.31,.37,.55,.58,.71,.15,.11,.32,.2,.51,.25,.19,.06,.48,.11,.86,.15v.22h.01Zm-5.82-5.47l-1.95-4.8-1.83,4.8h3.78Z" style="fill:#fff;"/><path d="M176.52,171.97v-.22c.62,0,1.11-.18,1.45-.53,.19-.2,.32-.45,.39-.75,.07-.31,.11-.77,.11-1.4v-6.83c0-.66-.04-1.14-.12-1.45s-.22-.57-.43-.76c-.17-.16-.37-.28-.58-.35s-.49-.12-.82-.13v-.21h5.92v.21c-.34,.02-.62,.06-.83,.14-.22,.07-.41,.19-.58,.35-.21,.2-.35,.46-.43,.77-.07,.31-.11,.79-.11,1.44v5.35c0,.82,.02,1.43,.06,1.84,.04,.4,.13,.73,.25,.98,.22,.44,.54,.77,.96,.98,.43,.21,.99,.31,1.7,.31s1.35-.1,1.86-.29c.5-.19,.92-.5,1.24-.9,.22-.28,.39-.59,.53-.95,.14-.35,.27-.82,.38-1.39l.22,.02-.12,3.8h-11.05v-.03Z" style="fill:#fff;"/></g><g><path d="M53.36,176.3c-.39,0-.81,.01-1.25,.04-.95,.05-1.66,.17-2.13,.36-.47,.19-.85,.52-1.15,.99-.28,.43-.49,1.02-.64,1.76l-.21-.02,.17-3.42h12.54l.17,3.42-.21,.02c-.17-.86-.43-1.51-.78-1.95-.36-.44-.87-.76-1.55-.95-.57-.17-1.55-.25-2.92-.25v9.45c0,.63,.04,1.1,.11,1.4,.07,.31,.2,.56,.39,.75,.17,.18,.37,.31,.59,.39s.51,.13,.86,.15v.21h-5.92v-.21c.36-.02,.65-.07,.87-.15s.42-.21,.59-.39c.19-.2,.32-.45,.39-.75,.07-.3,.11-.77,.11-1.41v-9.44h-.03Z" style="fill:#eab848;"/><path d="M61.82,182.43c0-1.04,.22-2,.67-2.89,.44-.89,1.09-1.66,1.95-2.32,.64-.49,1.32-.86,2.06-1.13,.73-.26,1.48-.39,2.22-.39,.95,0,1.87,.21,2.76,.63s1.67,1.01,2.34,1.77c1.09,1.24,1.63,2.64,1.63,4.22,0,.79-.14,1.55-.43,2.29-.28,.74-.7,1.41-1.24,2.01-.67,.75-1.46,1.34-2.37,1.75s-1.86,.62-2.86,.62-1.92-.2-2.82-.6-1.67-.97-2.32-1.71c-.51-.58-.91-1.23-1.18-1.96-.27-.74-.41-1.5-.41-2.29Zm2.24,.13c0,1.79,.49,3.31,1.46,4.54,.44,.55,.9,.95,1.4,1.2,.49,.25,1.06,.38,1.7,.38s1.22-.12,1.71-.37,.96-.65,1.4-1.21c.98-1.24,1.46-2.76,1.46-4.57,0-1-.13-1.94-.4-2.82-.27-.89-.65-1.64-1.14-2.26-.4-.51-.84-.88-1.32-1.11-.49-.23-1.06-.35-1.72-.35s-1.22,.11-1.7,.34-.92,.6-1.33,1.11c-.49,.61-.87,1.36-1.13,2.25-.25,.9-.39,1.85-.39,2.87Z" style="fill:#eab848;"/><path d="M82.57,176.02v.21c-.35,.02-.64,.07-.86,.15-.22,.08-.42,.21-.58,.39-.2,.21-.34,.47-.4,.78s-.1,.84-.1,1.59v5.25c0,.85,.03,1.47,.1,1.85s.2,.73,.39,1.05c.3,.49,.66,.84,1.1,1.06s.98,.33,1.65,.33,1.26-.1,1.84-.29c.58-.2,1.07-.46,1.46-.81,.24-.22,.42-.45,.53-.7s.19-.58,.23-.96c.02-.25,.04-.85,.04-1.8v-5.18c0-.64-.04-1.11-.11-1.41-.07-.3-.2-.55-.39-.75-.17-.18-.37-.31-.59-.39-.22-.08-.51-.13-.86-.15v-.21h4.27v.21c-.35,.02-.64,.07-.86,.15s-.42,.21-.59,.39c-.19,.2-.32,.45-.39,.76s-.11,.77-.11,1.4v5.85c0,.87-.07,1.5-.2,1.91s-.4,.79-.79,1.13c-.9,.78-2.19,1.17-3.87,1.17s-3.04-.37-3.86-1.1c-.54-.47-.86-1.09-.96-1.85-.04-.27-.06-.76-.06-1.47v-5.63c0-.64-.03-1.11-.1-1.41s-.2-.55-.4-.75c-.17-.18-.36-.31-.58-.39s-.51-.13-.87-.15v-.21h5.92v-.02Z" style="fill:#eab848;"/><path d="M95.05,182.48v3.28c0,.63,.04,1.1,.11,1.4,.07,.31,.2,.56,.39,.75,.17,.17,.36,.3,.58,.38,.22,.08,.51,.13,.87,.15v.21h-5.92v-.21c.36-.02,.65-.07,.87-.15s.41-.21,.58-.38c.2-.2,.33-.45,.4-.75s.1-.77,.1-1.41v-6.83c0-.64-.03-1.11-.1-1.41-.07-.3-.2-.55-.4-.75-.17-.18-.36-.31-.58-.39-.22-.08-.51-.13-.86-.15v-.21h4.47c.75,0,1.24,0,1.47,.01,.96,.04,1.71,.17,2.25,.39,.61,.25,1.09,.62,1.42,1.11s.5,1.06,.5,1.71c0,.96-.36,1.74-1.09,2.32-.22,.17-.47,.32-.74,.43s-.63,.22-1.08,.31c.37,.16,.65,.32,.83,.48,.14,.13,.27,.29,.39,.49s.29,.54,.53,1.03c.55,1.13,.97,1.96,1.25,2.48,.28,.52,.52,.9,.71,1.14,.15,.19,.3,.32,.45,.4,.15,.07,.34,.12,.6,.15v.21h-3.08c-.15-.34-.25-.56-.3-.65l-.65-1.47c-.39-.88-.78-1.67-1.18-2.35-.4-.67-.76-1.13-1.08-1.38-.17-.12-.35-.21-.54-.26s-.43-.08-.7-.08h-.47Zm0-.21h.35c.77,0,1.31-.04,1.65-.13,.33-.09,.64-.27,.93-.54,.65-.62,.97-1.38,.97-2.3,0-.49-.09-.95-.28-1.38s-.45-.78-.78-1.06c-.26-.21-.57-.36-.93-.44s-.87-.12-1.53-.12h-.38v5.97Z" style="fill:#eab848;"/><path d="M109.29,176.02v.21c-.35,.02-.64,.07-.86,.15-.22,.08-.42,.21-.59,.39-.24,.25-.39,.59-.45,1.03-.04,.33-.06,.7-.06,1.13v6.83c0,.51,.02,.92,.07,1.21,.05,.3,.13,.54,.24,.71,.16,.25,.37,.43,.62,.55s.59,.19,1.01,.22v.21h-5.92v-.21c.36-.02,.65-.07,.87-.15s.41-.21,.58-.38c.2-.2,.33-.45,.4-.75s.1-.77,.1-1.41v-6.83c0-.64-.03-1.11-.1-1.41s-.2-.55-.4-.75c-.17-.18-.36-.31-.58-.39s-.51-.13-.86-.15v-.21h5.93Z" style="fill:#eab848;"/><path d="M110.65,188.63l.03-3.83h.21c.26,.98,.57,1.75,.93,2.31,.67,1.04,1.52,1.55,2.54,1.55,.71,0,1.3-.24,1.76-.71,.46-.48,.7-1.08,.7-1.81,0-.32-.05-.64-.15-.96-.1-.33-.24-.61-.41-.84-.18-.24-.43-.47-.75-.7-.33-.22-.82-.5-1.49-.84-.59-.3-1.04-.55-1.35-.75s-.56-.41-.75-.62c-.53-.58-.8-1.29-.8-2.12,0-.51,.1-1.01,.31-1.48,.21-.48,.5-.88,.87-1.22,.65-.61,1.43-.91,2.33-.91,.29,0,.56,.03,.81,.09s.58,.17,.99,.35c.31,.12,.52,.2,.63,.24,.11,.03,.21,.05,.29,.05,.22,0,.36-.16,.44-.47h.21l.06,3.68h-.21c-.17-.59-.31-1.04-.43-1.35s-.26-.6-.43-.87c-.3-.48-.63-.84-1-1.07s-.78-.35-1.26-.35c-.69,0-1.24,.24-1.64,.71-.17,.19-.3,.42-.39,.68-.09,.26-.14,.52-.14,.78,0,1.03,.66,1.87,1.99,2.5l1.3,.63c1.01,.48,1.73,1,2.17,1.58,.51,.64,.76,1.39,.76,2.25,0,.57-.12,1.11-.34,1.63-.32,.72-.8,1.28-1.45,1.67-.64,.39-1.4,.59-2.27,.59-.8,0-1.56-.16-2.3-.47-.38-.17-.61-.26-.69-.29-.07-.03-.16-.04-.25-.04-.3,0-.5,.15-.61,.44h-.22v-.03Z" style="fill:#eab848;"/><path d="M136.02,176.23c-.35,.02-.63,.07-.85,.14s-.41,.21-.59,.38c-.14,.13-.24,.27-.31,.43s-.11,.36-.14,.6c-.04,.32-.07,.7-.07,1.14v6.83c0,.64,.04,1.11,.11,1.42,.07,.31,.21,.56,.4,.74,.34,.33,.82,.51,1.44,.54v.21h-5.92v-.21c.36-.02,.65-.07,.87-.15s.42-.21,.59-.38c.19-.2,.32-.45,.39-.75s.11-.77,.11-1.4v-8.29l-4.77,11.2h-.19l-4.75-11.03v8.12c0,.64,.04,1.11,.11,1.41,.07,.3,.2,.55,.39,.75,.17,.18,.37,.31,.59,.39,.22,.08,.5,.13,.86,.15v.21h-4.27v-.21c.35-.02,.64-.07,.86-.15s.42-.21,.59-.39c.19-.2,.32-.45,.39-.75s.11-.77,.11-1.4v-6.83c0-.28-.01-.55-.03-.81-.03-.46-.1-.79-.21-1-.15-.29-.37-.5-.63-.64-.27-.14-.62-.22-1.07-.25v-.21h4.02l4.01,9.91,4.16-9.91h3.81v.19h0Z" style="fill:#eab848;"/></g><g><path d="M116.71,53.76l-3.66-.11c-.07-2.98-.11-5.63-.11-7.95s.11-4.44,.33-6.15c.22-1.71,.68-3.12,1.39-4.23s1.72-1.92,3.07-2.44c1.34-.52,3.12-.78,5.34-.78,1.4,0,3.02,.04,4.84,.11s3.75,.15,5.77,.22,4.1,.15,6.23,.22,4.2,.11,6.19,.11c3.35,0,6.31,0,8.87-.02,2.56,0,4.84-.03,6.84-.06,2-.02,3.75-.06,5.25-.11s2.88-.12,4.12-.22,2.4-.22,3.47-.35c1.07-.14,2.16-.3,3.27-.5,.42,1.18,.63,2.16,.63,2.92,0,1.63-.68,2.87-2.05,3.73s-3.4,1.29-6.08,1.29c-2.54,0-5.53-.15-8.96-.46-3.44-.31-7.31-.61-11.63-.91-.07,3.65-.17,7.54-.28,11.68-.11,4.14-.23,8.42-.35,12.85-.12,4.42-.25,8.95-.39,13.57-.14,4.62-.28,9.24-.43,13.86s-.29,9.2-.43,13.73c-.14,4.53-8.06,12.53-8.19,16.77l-.96-2.5-.67-.07c.2-4.71,.38-9.22,.55-13.55,.17-4.32,.33-8.57,.48-12.73,.15-4.16,.28-8.32,.41-12.48,.12-4.15,.22-8.42,.3-12.81,.07-4.39,.14-8.95,.18-13.7,.05-4.74,.07-9.79,.07-15.14-1.4-.05-2.83-.09-4.29-.13-1.45-.04-2.93-.06-4.44-.06s-2.91,.02-4.21,.07c-1.31,.05-2.5,.22-3.59,.52-1.08,.3-2.06,.76-2.92,1.39-.86,.63-1.59,1.52-2.18,2.66-.59,1.15-1.04,2.61-1.35,4.38s-.46,3.94-.46,6.51v.87h.03Z" style="fill:#fff;"/><path d="M138.84,118.29l-.95-.1v-.23c.21-4.71,.39-9.22,.56-13.55,.17-4.32,.33-8.57,.48-12.73,.15-4.16,.28-8.32,.41-12.47,.12-4.19,.22-8.5,.3-12.81,.07-4.31,.13-8.91,.18-13.69,.05-4.72,.07-9.73,.07-14.9-1.33-.05-2.68-.09-4.05-.12-2.89-.07-6.03-.08-8.63,.02-1.28,.05-2.47,.22-3.53,.51-1.05,.29-2.01,.74-2.84,1.35-.83,.6-1.54,1.47-2.11,2.58-.58,1.12-1.02,2.57-1.33,4.31-.3,1.75-.46,3.92-.46,6.46v1.1l-4.14-.13v-.23c-.08-2.97-.12-5.65-.12-7.95s.11-4.47,.33-6.19c.23-1.74,.7-3.2,1.42-4.33,.73-1.15,1.8-2,3.19-2.54,1.36-.53,3.19-.79,5.43-.79,1.4,0,3.03,.04,4.85,.11s3.74,.15,5.77,.22c2.02,.07,4.1,.15,6.23,.22,2.12,.07,4.2,.11,6.18,.11,3.35,0,6.31,0,8.87-.02,2.56,0,4.84-.03,6.84-.06,1.98-.02,3.75-.06,5.24-.11s2.87-.12,4.11-.22c1.23-.1,2.4-.21,3.46-.35,1.06-.13,2.16-.3,3.26-.5l.2-.04,.07,.2c.43,1.21,.64,2.22,.64,3,0,1.71-.73,3.04-2.17,3.94-1.4,.88-3.49,1.33-6.21,1.33-2.54,0-5.56-.16-8.99-.46-3.36-.3-7.18-.6-11.36-.89-.07,3.57-.16,7.38-.27,11.42-.11,4.14-.23,8.42-.35,12.85-.12,4.42-.25,8.95-.39,13.57s-.28,9.24-.43,13.86-.29,9.2-.43,13.73c-.14,4.53-8.06,12.53-8.19,16.77v.21l-1.14-2.46Zm-.44-.54l.44,.05,.7,2.53c.12-4.17,8.05-12.1,8.18-16.56,.14-4.53,.28-9.11,.43-13.73s.29-9.24,.43-13.86c.14-4.62,.26-9.14,.39-13.57,.12-4.42,.24-8.71,.35-12.84,.11-4.14,.2-8.03,.28-11.68v-.26l.27,.02c4.29,.29,8.2,.6,11.63,.91,3.41,.31,6.42,.46,8.94,.46s4.63-.42,5.95-1.26c1.3-.82,1.94-1.97,1.94-3.53,0-.69-.18-1.58-.55-2.64-1.04,.18-2.07,.34-3.08,.46-1.07,.14-2.25,.25-3.49,.35s-2.63,.17-4.13,.22-3.27,.09-5.25,.11c-2,.02-4.28,.04-6.84,.06-2.56,0-5.52,.02-8.87,.02-1.99,0-4.08-.04-6.2-.11-2.13-.07-4.21-.15-6.23-.22-2.02-.07-3.94-.15-5.77-.22-1.81-.07-3.44-.11-4.83-.11-2.18,0-3.95,.26-5.25,.76-1.29,.5-2.28,1.28-2.95,2.34-.68,1.07-1.13,2.46-1.35,4.13-.22,1.69-.33,3.75-.33,6.12,0,2.24,.04,4.84,.11,7.71l3.17,.1v-.6c0-2.57,.16-4.77,.47-6.55,.31-1.79,.77-3.29,1.37-4.45,.61-1.18,1.37-2.1,2.25-2.75,.88-.64,1.89-1.12,3-1.42,1.1-.3,2.32-.48,3.64-.53,2.62-.1,5.77-.09,8.67-.02,1.45,.04,2.89,.08,4.29,.13h.24v.25c0,5.25-.03,10.34-.07,15.14-.05,4.78-.11,9.39-.18,13.7s-.17,8.62-.3,12.81c-.12,4.15-.26,8.31-.41,12.48s-.31,8.41-.48,12.74c-.2,4.25-.39,8.69-.58,13.31Z" style="fill:#fff;"/></g></g></g></svg>